<svg width="25" height="15" viewBox="0 0 25 15" fill="none" xmlns="http://www.w3.org/2000/svg">
<path d="M23.8441 4.81216C20.8318 1.81053 16.7526 0.125122 12.5001 0.125122C8.24753 0.125122 4.16834 1.81053 1.156 4.81216C0.973576 4.99458 0.871094 5.24199 0.871094 5.49997C0.871094 5.75795 0.973576 6.00537 1.156 6.18779C1.33841 6.3702 1.58583 6.47269 1.84381 6.47269C2.10179 6.47269 2.3492 6.3702 2.53162 6.18779C5.17639 3.54583 8.76178 2.06183 12.5001 2.06183C16.2383 2.06183 19.8237 3.54583 22.4685 6.18779C22.5586 6.27858 22.6657 6.35066 22.7837 6.39984C22.9018 6.44902 23.0284 6.47434 23.1563 6.47434C23.2842 6.47434 23.4108 6.44902 23.5289 6.39984C23.6469 6.35066 23.7541 6.27858 23.8441 6.18779C23.9349 6.09773 24.007 5.99058 24.0562 5.87253C24.1054 5.75448 24.1307 5.62786 24.1307 5.49997C24.1307 5.37209 24.1054 5.24547 24.0562 5.12742C24.007 5.00936 23.9349 4.90222 23.8441 4.81216ZM20.2501 10.5084C17.1252 12.5521 13.3213 13.2829 9.66162 12.5428C9.40469 12.4914 9.13787 12.5442 8.91986 12.6895C8.70185 12.8349 8.55051 13.0609 8.49912 13.3178C8.44773 13.5747 8.50052 13.8415 8.64586 14.0595C8.7912 14.2776 9.01719 14.4289 9.27412 14.4803C13.4375 15.322 17.7649 14.4865 21.3157 12.1553C21.5341 12.014 21.6874 11.7917 21.7419 11.5374C21.7964 11.283 21.7476 11.0174 21.6063 10.799C21.465 10.5806 21.2427 10.4273 20.9884 10.3728C20.734 10.3183 20.4684 10.3671 20.2501 10.5084ZM6.35818 11.4287C5.80456 11.1538 5.26759 10.8465 4.75006 10.5084C4.53735 10.3943 4.28971 10.3637 4.05564 10.4227C3.82157 10.4816 3.61792 10.6258 3.48459 10.827C3.35126 11.0282 3.29785 11.2719 3.33481 11.5105C3.37178 11.749 3.49646 11.9651 3.68443 12.1165C4.27261 12.511 4.88765 12.8638 5.52506 13.1725C5.65425 13.2374 5.79704 13.2706 5.94162 13.2693C6.16041 13.2681 6.37233 13.1928 6.54286 13.0557C6.7134 12.9186 6.83251 12.7278 6.8808 12.5145C6.9291 12.3011 6.90373 12.0776 6.80884 11.8804C6.71394 11.6833 6.5551 11.5241 6.35818 11.4287Z" fill="#FB6F92"/>
</svg>
