<svg width="17" height="20" viewBox="0 0 17 20" fill="none" xmlns="http://www.w3.org/2000/svg">
<path d="M8.50005 19.3125C9.26645 19.3125 10.0156 19.0852 10.6529 18.6594C11.2901 18.2337 11.7868 17.6285 12.0801 16.9204C12.3734 16.2123 12.4501 15.4332 12.3006 14.6815C12.1511 13.9298 11.782 13.2394 11.2401 12.6975C10.6982 12.1555 10.0077 11.7865 9.25602 11.637C8.50435 11.4874 7.72521 11.5642 7.01715 11.8575C6.30909 12.1508 5.7039 12.6474 5.2781 13.2847C4.85231 13.9219 4.62505 14.6711 4.62505 15.4375C4.62505 16.4652 5.03331 17.4508 5.76001 18.1775C6.48671 18.9042 7.47234 19.3125 8.50005 19.3125ZM8.50005 13.5C8.88325 13.5 9.25785 13.6136 9.57647 13.8265C9.89509 14.0394 10.1434 14.342 10.2901 14.6961C10.4367 15.0501 10.4751 15.4396 10.4003 15.8155C10.3256 16.1913 10.141 16.5366 9.87007 16.8075C9.5991 17.0785 9.25387 17.263 8.87804 17.3378C8.5022 17.4125 8.11263 17.3742 7.7586 17.2275C7.40457 17.0809 7.10197 16.8325 6.88908 16.5139C6.67618 16.1953 6.56255 15.8207 6.56255 15.4375C6.56255 14.9236 6.76668 14.4308 7.13003 14.0675C7.49338 13.7041 7.98619 13.5 8.50005 13.5ZM8.50005 5.75C8.75698 5.75 9.00338 5.64794 9.18506 5.46626C9.36674 5.28458 9.4688 5.03818 9.4688 4.78125V1.875C9.4688 1.61807 9.36674 1.37167 9.18506 1.18999C9.00338 1.00831 8.75698 0.90625 8.50005 0.90625C8.24312 0.90625 7.99672 1.00831 7.81504 1.18999C7.63336 1.37167 7.5313 1.61807 7.5313 1.875V4.78125C7.5313 5.03818 7.63336 5.28458 7.81504 5.46626C7.99672 5.64794 8.24312 5.75 8.50005 5.75ZM13.3438 6.71875C13.5034 6.71792 13.6602 6.6777 13.8005 6.60165C13.9408 6.5256 14.0601 6.41607 14.1479 6.28281L16.0854 3.37656C16.1699 3.27159 16.2316 3.15013 16.2666 3.01994C16.3015 2.88975 16.3089 2.75371 16.2882 2.62051C16.2676 2.4873 16.2194 2.35987 16.1467 2.24637C16.074 2.13286 15.9784 2.03578 15.866 1.96132C15.7537 1.88686 15.627 1.83667 15.4942 1.81396C15.3613 1.79125 15.2251 1.79652 15.0944 1.82942C14.9637 1.86233 14.8413 1.92215 14.735 2.00506C14.6288 2.08798 14.541 2.19215 14.4772 2.31094L12.5397 5.21719C12.3995 5.43076 12.3494 5.69108 12.4002 5.94146C12.451 6.19184 12.5986 6.41202 12.811 6.55406C12.967 6.66333 13.1533 6.72093 13.3438 6.71875ZM2.85224 6.28281C2.93999 6.41607 3.05931 6.5256 3.19958 6.60165C3.33985 6.6777 3.49674 6.71792 3.6563 6.71875C3.84676 6.72093 4.0331 6.66333 4.18911 6.55406C4.40147 6.41202 4.54913 6.19184 4.59993 5.94146C4.65073 5.69108 4.60057 5.43076 4.46036 5.21719L2.52286 2.31094C2.45915 2.19215 2.37134 2.08798 2.26507 2.00506C2.15879 1.92215 2.03638 1.86233 1.90567 1.82942C1.77495 1.79652 1.63881 1.79125 1.50595 1.81396C1.37308 1.83667 1.24642 1.88686 1.13406 1.96132C1.02169 2.03578 0.926107 2.13286 0.853406 2.24637C0.780706 2.35987 0.732494 2.4873 0.711851 2.62051C0.691209 2.75371 0.698592 2.88975 0.733527 3.01994C0.768462 3.15013 0.830181 3.27159 0.914737 3.37656L2.85224 6.28281Z" fill="#FB6F92"/>
</svg>
